<?xml version="1.0" encoding="utf-8"?>
<!-- Generator: Adobe Illustrator 25.0.0, SVG Export Plug-In . SVG Version: 6.00 Build 0)  -->
<svg version="1.1" id="Calque_1" xmlns="http://www.w3.org/2000/svg" xmlns:xlink="http://www.w3.org/1999/xlink" x="0px" y="0px"
	 viewBox="0 0 183 183.2" style="enable-background:new 0 0 183 183.2;" xml:space="preserve">
<path d="M183,172.8c-1.4-32.4-15.6-57.5-42.8-75.2c-2.9-1.9-3.3-2.8-1.2-5.8c9.4-12.8,12.9-29,9.7-44.5c-3-15.6-12.1-29.2-25.4-37.9
	c-26.9-17.5-63-9.9-80.5,17c-13.1,20.1-12.9,45.6,1,65.1c2.5,3.5,1.5,4.4-1.5,6.3c-26.3,17.2-40,41.8-42.2,73c0,1.1,0,2.3,0.1,3.5
	c0.1,5.2,3.5,8.8,8.1,8.9c4.5,0.1,7.8-3.2,8.3-8.2c0.3-2.5,0.3-5,0.6-7.5c2.9-26.4,16.4-45.7,39.4-58.7c2.3-1.3,4-1.2,6.4,0.1
	c18.9,10.4,38,10.4,57,0.1c2.8-1.5,4.7-1.5,7.3,0c24.7,14.3,37.9,35.5,39.2,64.1c0.3,6.5,3.6,10.2,8.6,10.1
	C180,183.1,183.2,179.2,183,172.8z M133,58.3c0.1,22.8-18.4,41.4-41.2,41.5c-0.1,0-0.3,0-0.4,0c-23,0-41.6-18.6-41.6-41.6
	c0-23,18.6-41.6,41.6-41.6C114.4,16.7,133.1,35.3,133,58.3C133.1,58.3,133,58.3,133,58.3z"/>
</svg>
