<svg xmlns="http://www.w3.org/2000/svg" viewBox="0 0 95.54 94.83"><g id="Calque_2" data-name="Calque 2"><g id="Calque_1-2" data-name="Calque 1"><g id="Calque_2-2" data-name="Calque 2"><g id="Calque_1-2-2" data-name="Calque 1-2"><path d="M48.53,94.83c-3.29-2.72-6.48-5-9.28-7.74C29.41,77.58,19.92,67.73,12,56.46a71,71,0,0,1-10.55-21,31.4,31.4,0,0,1-.26-18.19C4.1,7.93,10.52,2.45,20,.62c5.82-1.13,11.6-.89,17,2.13a28.85,28.85,0,0,1,8.33,7.5c.73.93,1.47,1.86,2.33,2.93l1.44-1.92c4.47-5.88,10-10.14,17.56-11,14.93-1.76,27,7.56,28.65,21.52a36.5,36.5,0,0,1-3.11,19A98.19,98.19,0,0,1,73.67,68.93c-7.49,8-15.35,15.62-23,23.42A32.35,32.35,0,0,0,48.53,94.83Zm-.81-7.42c.31-.27.6-.48.85-.73C53.39,82,58.31,77.31,63,72.45c8.81-9.13,16.58-19.05,22.4-30.4,2.5-4.87,4.54-9.88,4.76-15.44.25-6.49-1.64-12.16-6.64-16.53A19,19,0,0,0,71.19,5.54c-6.44-.22-11.95,1.69-15.91,6.93-2.23,3-4.11,6.18-6.15,9.29-.49.74-1,1.48-1.54,2.36L46,21.59c-1.66-2.68-3.26-5.41-5-8a18.16,18.16,0,0,0-6.78-6.3A18.85,18.85,0,0,0,21,5.91C13.89,7.54,8.58,11.37,6.49,18.7a25.23,25.23,0,0,0-.25,11.17,53.49,53.49,0,0,0,8.64,20.88c7.06,10.66,15.66,20,24.81,28.87Z"/></g></g><g id="Calque_2-3" data-name="Calque 2"><g id="Calque_1-2-3" data-name="Calque 1-2"><path d="M65.46,47.62A17.31,17.31,0,0,1,48,64.6c-9.66,0-17.55-7.77-17.48-17.14A17.32,17.32,0,0,1,48.06,30.55C57.65,30.6,65.51,38.28,65.46,47.62Zm-3.24-.09a14.26,14.26,0,0,0-28.51.08,14.26,14.26,0,0,0,28.51-.08Z"/><path d="M46.51,49H41.08A10.09,10.09,0,0,1,40,49c-.87-.09-1.49-.51-1.46-1.46a1.36,1.36,0,0,1,1.53-1.4c1.66,0,3.33,0,5,0h1.46V39.83a1.39,1.39,0,0,1,1.28-1.48H48a1.37,1.37,0,0,1,1.47,1.27,1.15,1.15,0,0,1,0,.19c.05,1.58,0,3.17,0,4.75v1.57h6.32c.93,0,1.64.43,1.66,1.4S56.69,49,55.71,49H49.43v6.11c0,1-.51,1.68-1.53,1.65s-1.42-.69-1.42-1.65Z"/></g></g></g></g></svg>