<svg xmlns="http://www.w3.org/2000/svg" viewBox="0 0 95.54 94.83"><defs><style>.cls-1{fill:#fff;}</style></defs><g id="Calque_2" data-name="Calque 2"><g id="Calque_1-2" data-name="Calque 1"><g id="Calque_2-2" data-name="Calque 2"><g id="Calque_1-2-2" data-name="Calque 1-2"><path d="M48.53,94.83c-3.29-2.72-6.48-5-9.28-7.74C29.41,77.58,19.92,67.73,12,56.46a71,71,0,0,1-10.55-21,31.4,31.4,0,0,1-.26-18.19C4.1,7.93,10.52,2.45,20,.62c5.82-1.13,11.6-.89,17,2.13a28.85,28.85,0,0,1,8.33,7.5c.73.93,1.47,1.86,2.33,2.93l1.44-1.92c4.47-5.88,10-10.14,17.56-11,14.93-1.76,27,7.56,28.65,21.52a36.5,36.5,0,0,1-3.11,19A98.19,98.19,0,0,1,73.67,68.93c-7.49,8-15.35,15.62-23,23.42A32.35,32.35,0,0,0,48.53,94.83Zm-.81-7.42c.31-.27.6-.48.85-.73C53.39,82,58.31,77.31,63,72.45c8.81-9.13,16.58-19.05,22.4-30.4,2.5-4.87,4.54-9.88,4.76-15.44.25-6.49-1.64-12.16-6.64-16.53A19,19,0,0,0,71.19,5.54c-6.44-.22-11.95,1.69-15.91,6.93-2.23,3-4.11,6.18-6.15,9.29-.49.74-1,1.48-1.54,2.36L46,21.59c-1.66-2.68-3.26-5.41-5-8a18.16,18.16,0,0,0-6.78-6.3A18.85,18.85,0,0,0,21,5.91C13.89,7.54,8.58,11.37,6.49,18.7a25.23,25.23,0,0,0-.25,11.17,53.49,53.49,0,0,0,8.64,20.88c7.06,10.66,15.66,20,24.81,28.87Z"/></g></g><g id="Calque_2-3" data-name="Calque 2"><g id="Calque_1-2-3" data-name="Calque 1-2"><path d="M38.34,68.31a11.29,11.29,0,0,1-2-.77,4.42,4.42,0,0,1-2.22-4q0-11.08,0-22.18a.56.56,0,0,0-.39-.6,4.85,4.85,0,0,1-2.59-5.11,4.71,4.71,0,0,1,3.75-4,5.1,5.1,0,0,1,1.17-.11c1.93,0,3.86,0,5.79,0,.39,0,.51-.08.61-.51a5.53,5.53,0,0,1,4.16-4.32c.26-.07.53-.12.79-.17h1.14a10.65,10.65,0,0,1,1.4.37,5.53,5.53,0,0,1,3.58,4.28l.1.34h.45c2,0,3.94,0,5.91,0a4.63,4.63,0,0,1,4.46,2.84,4.88,4.88,0,0,1-2.22,6.42.6.6,0,0,0-.38.65q0,11,0,22a4.73,4.73,0,0,1-4.1,4.78l-.15.07Zm-2-27V52.72c0,3.66,0,7.32,0,11A2.42,2.42,0,0,0,38.71,66c1.63,0,3.26,0,4.9,0,4.51,0,9,0,13.54,0a2.42,2.42,0,0,0,2.41-2.41c0-1.32,0-2.64,0-4V41.33ZM48,33.79c-3.91,0-7.83,0-11.74,0a2.66,2.66,0,0,0-2.87,2.91A2.51,2.51,0,0,0,35.52,39c1,.06,1.92.05,2.88.06H50.65c3.08,0,6.16,0,9.24,0a2.61,2.61,0,0,0,2.57-3.53,2.51,2.51,0,0,0-2.59-1.75Zm3.3-2.28a3.36,3.36,0,0,0-3.64-2.69,3.32,3.32,0,0,0-2.91,2.69Z"/><path class="cls-1" d="M51.26,31.51H44.71a3.32,3.32,0,0,1,2.91-2.69A3.36,3.36,0,0,1,51.26,31.51Z"/><path d="M49.11,55.66v6.28a1.13,1.13,0,0,1-.6,1.07,1.05,1.05,0,0,1-1.19-.07,1.1,1.1,0,0,1-.49-1V49.36a1.14,1.14,0,1,1,2.28,0C49.12,51.47,49.11,53.56,49.11,55.66Z"/><path d="M40.79,55.66V49.38A1.12,1.12,0,1,1,43,49.32c0,1.74,0,3.48,0,5.22q0,3.69,0,7.37a1.16,1.16,0,0,1-1,1.24,1.13,1.13,0,0,1-1.19-.74,1.46,1.46,0,0,1-.06-.51C40.79,59.82,40.78,57.74,40.79,55.66Z"/><path d="M55.16,55.64V62a1.12,1.12,0,1,1-2.24.1c0-.72,0-1.44,0-2.16V50.11c0-.29,0-.59,0-.89a1.12,1.12,0,0,1,2.23.06c0,1.93,0,3.86,0,5.78v.58Z"/></g></g></g></g></svg>