<svg xmlns="http://www.w3.org/2000/svg" viewBox="0 0 95.5 94.83"><g id="Calque_2" data-name="Calque 2"><g id="Calque_1-2" data-name="Calque 1"><path d="M48.5,94.83c-3.29-2.72-6.48-5-9.28-7.74C29.38,77.58,19.89,67.73,12,56.46a71.1,71.1,0,0,1-10.55-21,31.4,31.4,0,0,1-.26-18.19C4.07,7.93,10.49,2.45,20,.62,25.82-.51,31.6-.27,37,2.75a28.85,28.85,0,0,1,8.33,7.5c.73.93,1.47,1.86,2.33,2.93.55-.73,1-1.33,1.44-1.92,4.47-5.88,10-10.14,17.56-11,14.93-1.76,27,7.56,28.65,21.52a36.47,36.47,0,0,1-3.11,19A98.21,98.21,0,0,1,73.64,68.93c-7.49,8-15.35,15.62-23,23.42C49.9,93.06,49.31,93.87,48.5,94.83Zm-.81-7.42c.31-.27.6-.48.85-.73C53.36,82,58.28,77.31,63,72.45c8.81-9.13,16.58-19.05,22.4-30.4,2.5-4.87,4.54-9.88,4.76-15.44.25-6.49-1.64-12.16-6.64-16.53A19,19,0,0,0,71.16,5.54c-6.44-.22-11.95,1.69-15.91,6.93-2.23,3-4.11,6.18-6.15,9.29-.49.74-1,1.48-1.54,2.36l-1.62-2.53c-1.66-2.68-3.26-5.41-5-8a18.16,18.16,0,0,0-6.78-6.3A18.85,18.85,0,0,0,20.94,5.91C13.86,7.54,8.55,11.37,6.46,18.7a25.22,25.22,0,0,0-.25,11.17,53.55,53.55,0,0,0,8.64,20.88c7.06,10.66,15.66,20,24.81,28.87Z"/></g></g></svg>