<svg xmlns="http://www.w3.org/2000/svg" viewBox="0 0 437.11 435.47"><g id="Calque_2" data-name="Calque 2"><g id="Calque_1-2" data-name="Calque 1"><path d="M266.72,55.36,380.54,169.2c-10.7,10.53-21.67,21.18-32.48,32q-96.39,96.29-192.8,192.55a20.05,20.05,0,0,1-8.84,4.87Q75.13,416.84,3.73,434.72c-.94.24-1.9.39-3.73.75,1.94-8,3.69-15.52,5.58-23q15.78-62.42,31.67-124.79a14.45,14.45,0,0,1,3.41-6.4q111.78-112,223.73-223.86C265.19,56.62,266.08,55.92,266.72,55.36ZM147.58,357.11,336.37,168.35l-22.95-22.82L130.11,328.32Zm120.08-258-189,189,28.27,17.17,183.7-183.09ZM62.12,314.55c-.71,2.72-1.27,4.76-1.78,6.81C56.48,337,52.81,352.72,48.69,368.3c-1.4,5.27-2,9.53,3.67,12.62a13.74,13.74,0,0,1,4.41,4.7c1.66,2.55,3.5,2.83,6.33,2.1,13.67-3.53,27.41-6.84,41.13-10.22L121,373.37C109,345.63,89.69,326.43,62.12,314.55Z"/><path d="M390.28,158.88,276.68,45.2C291.32,30.55,306.12,15.7,321,.94A4.81,4.81,0,0,1,324.56,0c56.13,6.9,93.57,43.14,107.11,87.67,2.46,8.08,3.78,16.52,5.4,24.83a5,5,0,0,1-1.4,3.83C420.55,130.65,405.32,144.82,390.28,158.88ZM319.41,45.09c24,24,47.27,47.3,71.15,71.18,3.81-4,7.8-8,11.48-12.31a5.54,5.54,0,0,0,.92-4.44c-9.83-34.67-32-57.1-66.8-66.84a6.12,6.12,0,0,0-4.83,1.12C327.18,37.37,323.35,41.31,319.41,45.09Z"/></g></g></svg>