<?xml version="1.0" standalone="no"?>
<!DOCTYPE svg PUBLIC "-//W3C//DTD SVG 20010904//EN"
 "http://www.w3.org/TR/2001/REC-SVG-20010904/DTD/svg10.dtd">
<svg version="1.0" xmlns="http://www.w3.org/2000/svg"
 width="256.000000pt" height="256.000000pt" viewBox="0 0 256.000000 256.000000"
 preserveAspectRatio="xMidYMid meet">

<g transform="translate(0.000000,256.000000) scale(0.100000,-0.100000)"
fill="#000000" stroke="none">
<path d="M1035 2530 c-402 -46 -721 -191 -795 -362 -17 -41 -21 -65 -18 -119
3 -59 9 -75 42 -124 104 -151 383 -270 741 -316 50 -6 173 -11 275 -11 102 0
226 5 275 11 358 46 637 165 741 316 33 49 39 65 42 124 8 140 -72 239 -271
336 -211 102 -422 145 -742 150 -115 2 -246 0 -290 -5z"/>
<path d="M220 1702 c0 -141 3 -191 15 -219 69 -165 345 -303 721 -360 150 -22
498 -22 648 0 376 57 652 195 721 360 12 28 15 78 15 219 l0 183 -22 -45
c-139 -285 -829 -448 -1436 -340 -313 56 -567 191 -640 340 l-22 45 0 -183z"/>
<path d="M220 1209 c0 -179 1 -187 26 -237 103 -207 545 -362 1034 -362 489 0
931 155 1034 362 25 50 26 58 26 237 l0 186 -19 -41 c-53 -116 -201 -219 -416
-289 -374 -123 -876 -123 -1250 0 -215 70 -363 173 -416 289 l-19 41 0 -186z"/>
<path d="M220 712 c0 -175 1 -185 25 -231 31 -61 123 -145 213 -194 97 -52
282 -111 437 -138 114 -21 162 -24 385 -24 223 0 271 3 385 24 155 27 340 86
437 138 90 49 182 133 213 194 24 46 25 56 25 231 l-1 183 -24 -46 c-74 -142
-319 -274 -612 -329 -287 -53 -559 -53 -846 0 -293 55 -538 187 -612 329 l-24
46 -1 -183z"/>
</g>
</svg>
