<svg xmlns="http://www.w3.org/2000/svg" viewBox="0 0 414.56 512"><defs><style>.cls-1{fill:#fff;}</style></defs><g id="Calque_2" data-name="Calque 2"><g id="Calque_1-2" data-name="Calque 1"><path d="M89.3,512C81,508.94,72,507.1,64.57,502.58,46.75,491.71,37.43,475,37.38,454.08q-.29-135.91,0-271.83c0-3.95-1.22-5.77-4.72-7.43C9.92,164-3.59,137.08.84,112.2c4.71-26.45,20-43.07,46-49.53a61.41,61.41,0,0,1,14.34-1.44c23.65-.14,47.3-.17,70.95,0,4.77,0,6.3-1,7.51-6.2,6.48-27.5,23.57-45.36,51-53,3.17-.88,6.44-1.4,9.66-2.09h14C220,1.46,226,2.29,231.45,4.47c23.93,9.59,38.78,27,43.91,52.45.26,1.3.71,2.55,1.19,4.25H282c24.15,0,48.31-.31,72.45.09,25.15.4,44.18,11.67,54.7,34.79,12.56,27.61,3.42,63.7-27.18,78.73-3.81,1.87-4.7,4.05-4.7,7.95q.15,134.91.08,269.83c0,30.2-20.37,54-50.23,58.63a6.85,6.85,0,0,0-1.77.81ZM65.13,181.43V187q0,67,0,134c0,44.82,0,89.64.19,134.46.07,15,13.59,28.37,28.47,28.53,20,.21,40,.14,60,.13,55.33,0,110.66.07,166-.14a29.61,29.61,0,0,0,29.49-29.53c.23-16.16.17-32.33.18-48.49q0-98.48,0-197V181.43ZM207.19,89c-48,0-96,.37-143.94-.17-20.92-.24-36.74,14.09-35.1,35.69C29.23,138.7,40.56,152,54.68,152.91c11.76.73,23.58.69,35.37.71q75,.1,150.09,0c37.73,0,75.46-.15,113.19,0,25.3.09,38.06-21.2,31.59-43.15C380.9,96.83,368.81,89,353.13,89Q280.17,89,207.19,89Zm40.39-28C244.1,40.5,225.36,26.77,203,28,186.16,29,168.5,45.16,167.31,61Z"/><path class="cls-1" d="M247.58,61H167.31C168.5,45.16,186.16,29,203,28,225.36,26.77,244.1,40.5,247.58,61Z"/><path d="M221.3,357q0,38.49,0,77c0,5.73-2.23,10.25-7.44,13.13s-9.9,2.14-14.53-.92c-4.24-2.8-6-7.06-6-11.93q-.08-77.22,0-154.43c0-8.75,6-14.83,14.08-14.79s13.84,6.19,13.86,15C221.35,305.66,221.3,331.32,221.3,357Z"/><path d="M119.25,357q0-38.46,0-76.91c0-9,5.11-14.82,13.05-15.07,8.37-.26,14.24,5.22,14.34,14.26.22,21.35.1,42.7.12,64.05q0,45.17.05,90.33c0,8.25-4.72,13.9-12.24,15.12-5.84.95-12.28-2.91-14.49-9a18.92,18.92,0,0,1-.8-6.34Q119.21,395.2,119.25,357Z"/><path d="M295.4,356.74c0,25.8,0,51.6,0,77.4,0,6.41-2.81,11-8.44,13.48-8.95,4-18.71-2.37-19.05-12.35-.29-8.78-.27-17.58-.27-26.37q0-59.94,0-119.88c0-3.65.07-7.31.35-11,.61-8.12,6.14-13.2,14-13.06,7.63.14,13.26,5.78,13.29,13.82.1,23.64,0,47.28,0,70.92v7Z"/></g></g></svg>