<svg xmlns="http://www.w3.org/2000/svg" viewBox="0 0 30.09 36.15"><defs><style>.cls-1{fill:#0b909c;}.cls-2{fill:#025e63;}.cls-3{fill:#7dd8e4;}.cls-4{fill:#7ad5e0;}.cls-5{fill:#109ead;}.cls-6{fill:#11a6b9;}.cls-7{fill:#11a2b1;}.cls-8{fill:#15abbd;}.cls-9{fill:#16a5b4;}</style></defs><g id="Calque_2" data-name="Calque 2"><g id="Calque_1-2" data-name="Calque 1"><path class="cls-1" d="M9.4,36.15a9.12,9.12,0,0,1-9-11.8A51,51,0,0,1,14,2.65a9.66,9.66,0,0,1,13.4.1,9,9,0,0,1,.2,12.6l-.3.3A38.75,38.75,0,0,0,18.4,30,9.37,9.37,0,0,1,9.4,36.15Z"/><path class="cls-2" d="M28,9.25a6.75,6.75,0,0,1-2.2,5.3,40.21,40.21,0,0,0-9.2,14.7c-1.4,4-5.8,6.1-9.3,4.8-4.5-1.7-6.3-5.7-4.7-10.2a47.9,47.9,0,0,1,13-19.8c2.5-2.3,4.9-2.8,7.6-1.6C26.3,3.85,28,6.25,28,9.25Z"/><path class="cls-3" d="M20.1,14.05a3.89,3.89,0,0,1-3.8-3.5A3.71,3.71,0,0,1,20,6.75h0a3.53,3.53,0,0,1,3.7,3.5h0a3.69,3.69,0,0,1-3.6,3.8Z"/><path class="cls-4" d="M15.6,17.05a2.1,2.1,0,0,1-1.9,2.2h-.3a2,2,0,0,1-2.2-1.7v-.4a2.06,2.06,0,0,1,1.9-2.3h.5C14.9,14.85,15.5,15.75,15.6,17.05Z"/><path class="cls-5" d="M8.1,23a1.59,1.59,0,0,1,1.2,1.5.94.94,0,0,1-1,1H8.1A1.44,1.44,0,0,1,7,23.85C7,23.15,7.5,23.05,8.1,23Z"/><path class="cls-6" d="M10.1,25.85a1.82,1.82,0,0,1,1.4,1.4.89.89,0,0,1-.6,1h-.3A1.69,1.69,0,0,1,9.1,27,1.09,1.09,0,0,1,10.1,25.85Z"/><path class="cls-7" d="M8.4,32.15a.94.94,0,0,1-1-1v-.3a.79.79,0,0,1,.8-.8h.1a1.2,1.2,0,0,1,1.2,1.1v.1C9.5,32,9,32.15,8.4,32.15Z"/><path class="cls-8" d="M10.6,30.45c.1-.6.2-1.3,1-1.3s.7.7.7,1.2a1.09,1.09,0,0,1-.9,1.2C10.7,31.65,10.6,31.05,10.6,30.45Z"/><path class="cls-9" d="M8.9,20.75c-.1.5-.3,1-.9,1a.9.9,0,0,1-1-.7v-.2a1.17,1.17,0,0,1,.9-1.1C8.5,19.65,8.9,20.05,8.9,20.75Z"/></g></g></svg>