<svg xmlns="http://www.w3.org/2000/svg" viewBox="0 0 174.03 166"><g id="Calque_2" data-name="Calque 2"><g id="Calque_1-2" data-name="Calque 1"><path d="M173.62,62.89c-1.4-3.89-4.81-4.43-8.44-4.94-15.13-2.12-30.21-4.58-45.35-6.58a6.21,6.21,0,0,1-5.47-4Q104.28,26.53,94,5.8c-1.5-3-3.09-5.92-7.23-5.8C83,.11,81.45,2.79,80,5.7c-6.7,13.67-13.46,27.32-20.11,41-1.29,2.65-2.65,4.29-6.06,4.73C38.7,53.39,23.63,55.87,8.5,58,5,58.47,1.81,59.08.44,62.72S1.27,69,3.76,71.38C14.17,81.44,24.29,91.8,35,101.5c4.08,3.69,4.52,7.21,3.6,12.09-2.78,14.84-5.2,29.75-7.62,43.86-.35,7.49,4.27,10.36,10.51,7.14,13.84-7.16,27.64-14.37,41.36-21.76,2.91-1.56,5.07-1.79,8.14-.1,13.21,7.25,26.63,14.14,40,21.17,3.14,1.65,6.26,3.41,9.69.68,3.16-2.5,2.53-5.83,2-9.16-2.61-15.21-5.08-30.45-7.89-45.62-.51-2.76.3-4.26,2.07-6q16.52-15.94,32.93-32C172.27,69.37,175.1,67,173.62,62.89ZM146.39,76.3c-7.31,7-14.39,14.32-21.87,21.18-3.4,3.12-4.1,6.46-3.32,10.71,2.28,12.41,4.41,24.84,6.57,37.26a9.47,9.47,0,0,1-.11,1.83C115.75,141,104,135,92.35,128.71a10,10,0,0,0-10.68,0C70.06,135,58.27,141,46,147.48c2.32-13.54,4.39-26.46,6.81-39.31.82-4.37-.16-7.47-3.3-10.7C40.32,88.07,31.54,78.32,23,69.11c10.26-1.49,22.1-3.48,34-4.83,6.49-.74,10.76-3,13.53-9.43C75.33,43.68,81.19,33,87,21.27c6,12.11,11.8,23.37,17.09,34.88,2.28,5,5.52,7.21,10.87,7.85,12.52,1.5,25,3.47,39.24,5.51C151,72.26,148.6,74.17,146.39,76.3Z"/></g></g></svg>