<svg xmlns="http://www.w3.org/2000/svg" viewBox="0 0 173.6 165.7"><defs><style>.cls-1{fill:#f7f706;}</style></defs><g id="Calque_2" data-name="Calque 2"><g id="Calque_1-2" data-name="Calque 1"><path d="M0,61.7c3.55-4.39,8.8-4.16,13.62-4.9,12.5-1.9,25-3.74,37.54-5.34,4.57-.58,7.45-2.46,9.46-6.78C66.45,32.17,72.7,19.87,78.79,7.49c.51-1,.77-2.41,1.59-3.07C82.56,2.67,85,.06,87.33,0c2.08,0,5.1,2.44,6.21,4.59,6.5,12.54,12.83,25.19,18.64,38.06,2.64,5.84,6.34,8.42,12.68,9.14,14,1.59,28,3.73,42,6.12,2.52.44,5.91,2.7,6.61,4.86s-.82,5.9-2.61,7.72q-15.57,15.84-31.82,31c-3.42,3.21-4.51,6.35-3.6,11,2.72,14,5,28.17,7.44,42.25.73,4.11.37,7.87-2.84,10.93h-6c-14.48-7.76-28.91-15.61-43.5-23.16a8.26,8.26,0,0,0-6.59-.15C69.18,150,54.62,157.89,40,165.7H34c-3.48-3.44-3.44-7.61-2.64-12,2.46-13.75,4.84-27.51,7.28-41.26a11.41,11.41,0,0,0-3.52-10.87Q17.56,84.64,0,67.7Zm87.2-40c-1,1.6-1.55,2.37-2,3.21C80.46,34.63,75.57,44.27,71,54.06c-2.7,5.8-6.74,9.27-13.21,9.9-4.47.43-8.91,1.12-13.36,1.78C37.69,66.75,31,67.83,23.28,69c8.89,9.43,16.86,18.14,25.12,26.56,3.84,3.92,5.5,8.13,4.41,13.52q-1.91,9.54-3.52,19.13c-1,5.76-1.77,11.54-2.66,17.39,1.17,0,1.56.12,1.81,0Q59.32,140,70.15,134.4c19.77-10.34,13.91-10.37,33.74,0,7.59,4,15.22,7.87,23.79,12.28-.42-3-.62-5-1-6.86-1.59-9.18-2.73-18.47-5-27.48-2-8.23.53-13.62,6.56-19.25,8.18-7.64,15.16-16.55,22.12-24.31-9.47-1.33-20.9-3.39-32.42-4.42-8.23-.74-12.74-4.74-15.92-12.06C97.69,42.17,92.45,32.4,87.2,21.73Z"/><path class="cls-1" d="M87.2,21.73C92.45,32.4,97.69,42.17,102.09,52.3c3.18,7.32,7.69,11.32,15.92,12.06,11.52,1,23,3.09,32.42,4.42-7,7.76-13.94,16.67-22.12,24.31-6,5.63-8.61,11-6.56,19.25,2.25,9,3.39,18.3,5,27.48.33,1.91.53,3.83,1,6.86-8.57-4.41-16.2-8.3-23.79-12.28-19.83-10.37-14-10.34-33.74,0q-10.83,5.65-21.71,11.21c-.25.14-.64,0-1.81,0,.89-5.85,1.68-11.63,2.66-17.39q1.62-9.59,3.52-19.13c1.09-5.39-.57-9.6-4.41-13.52C40.14,87.17,32.17,78.46,23.28,69c7.67-1.2,14.41-2.28,21.16-3.29,4.45-.66,8.89-1.35,13.36-1.78,6.47-.63,10.51-4.1,13.21-9.9,4.56-9.79,9.45-19.43,14.23-29.12C85.65,24.1,86.21,23.33,87.2,21.73Z"/></g></g></svg>