<?xml version="1.0" standalone="no"?>
<!DOCTYPE svg PUBLIC "-//W3C//DTD SVG 20010904//EN"
 "http://www.w3.org/TR/2001/REC-SVG-20010904/DTD/svg10.dtd">
<svg version="1.0" xmlns="http://www.w3.org/2000/svg"
 width="256.000000pt" height="256.000000pt" viewBox="0 0 256.000000 256.000000"
 preserveAspectRatio="xMidYMid meet">

<g transform="translate(0.000000,256.000000) scale(0.100000,-0.100000)"
fill="#000000" stroke="none">
<path d="M1903 2336 l-28 -24 -3 -258 -3 -258 -267 267 c-173 172 -277 268
-294 272 -16 4 -40 4 -55 1 -19 -5 -222 -201 -625 -604 l-598 -597 0 -48 c0
-67 30 -97 97 -97 l48 0 552 552 553 553 553 -552 c364 -364 561 -554 579
-558 62 -15 128 34 128 95 0 40 -29 75 -199 245 l-171 170 0 388 c0 493 5 477
-154 477 -75 0 -88 -3 -113 -24z"/>
<path d="M737 1382 l-537 -537 0 -312 0 -311 33 -63 c38 -74 94 -121 169 -144
77 -23 1679 -23 1756 0 75 23 131 70 169 144 l33 63 0 311 0 312 -538 538
c-295 295 -539 537 -542 537 -3 0 -247 -242 -543 -538z m792 -418 c47 -33 51
-63 51 -366 0 -163 -4 -299 -10 -320 -6 -20 -22 -46 -37 -58 -24 -19 -39 -20
-253 -20 -214 0 -229 1 -253 20 -15 12 -31 38 -37 58 -16 60 -13 595 4 636 27
64 36 66 286 66 192 0 229 -2 249 -16z"/>
</g>
</svg>
