<?xml version="1.0" encoding="utf-8"?>
<!-- Generator: Adobe Illustrator 25.0.0, SVG Export Plug-In . SVG Version: 6.00 Build 0)  -->
<svg version="1.1" id="Calque_1" xmlns="http://www.w3.org/2000/svg" xmlns:xlink="http://www.w3.org/1999/xlink" x="0px" y="0px"
	 viewBox="0 0 517.5 626" style="enable-background:new 0 0 517.5 626;" xml:space="preserve">
<path d="M417.8,0c8.6,2.9,17.9,4.7,25.8,9c25.2,13.8,37.7,35.9,38,64.6c0.3,33.2,0.1,66.3,0.1,99.5v23.7c-3.9-3.2-6.9-5.6-9.8-8.2
	c-11.6-10-23.1-20.1-34.8-30c-2.5-1.9-3.9-4.9-3.7-8.1c0.1-25.2,0-50.3,0.1-75.5c0-9-2.5-16.7-10-22.2c-5.3-3.9-11.3-4.6-17.5-4.6
	h-330c-6.4,0-12.7,0.7-18,4.8c-5.6,4.5-9.2,10-9.5,17.4c-0.1,2.2-0.3,4.3-0.3,6.5c0,157.5,0,314.9-0.1,472.4
	c0,9.4,1.7,17.8,9.8,23.9c5.1,3.8,10.9,4.8,17,4.8c20,0,40,0,60,0c90.1,0,180.3,0,270.4,0c10.5,0,19.8-2.6,24.7-12.6
	c2.2-4.6,3.1-10.2,3.1-15.4c0.3-25,0.1-50,0.2-75c0-2.2,1-5.1,2.5-6.5c13.9-12.4,28.1-24.5,42.2-36.6c0.7-0.6,1.6-1.1,3.1-2.2
	c0.1,2.1,0.3,3.7,0.3,5.3c0,39,0.2,78-0.1,117c-0.2,30.8-14.2,53.5-41.9,67.1c-6.8,3.3-14.5,4.7-21.8,6.9h-355
	c-1-0.4-2.1-0.8-3.2-1.1c-10.2-2.2-19.8-5.7-28.3-11.8C9.7,597.6,0,576.3,0,550C0.1,392,0.1,234,0,76c0-2.3,0-4.7,0.1-7
	c1.9-25.9,13.5-46.2,36.2-59c8.4-4.7,18.3-6.8,27.5-10H417.8z"/>
<path d="M349.2,240.2H490c18.4,0,27.5,9.2,27.6,27.6c0,29.8,0,59.7,0,89.5c0,17.9-9.2,27.1-27,27.1c-44.8,0-89.6,0-134.5,0h-6.5
	c-0.1,2-0.3,3.8-0.3,5.5c0,17.5,0.1,35-0.1,52.5c0.1,5.5-0.7,11-2.1,16.2c-3.5,11.3-16.4,14.8-25.3,7.1
	c-20.3-17.5-40.4-35.2-60.7-52.7c-26.3-22.8-52.6-45.5-78.9-68.2c-12.4-10.7-24.6-21.4-37.5-32.7c7.1-6.2,13.9-12.2,20.8-18.2
	c17.6-15.3,35.2-30.6,52.7-45.8c22.3-19.3,44.5-38.5,66.8-57.8c11.3-9.8,22.8-19.4,33.8-29.6c5.5-5.1,11-7.1,18.1-4.5
	c7.4,2.6,10.1,8.9,11.3,15.8c0.7,4.4,1,8.9,0.9,13.4c0.1,16.2,0,32.3,0,48.5L349.2,240.2z"/>
</svg>
