<?xml version="1.0" encoding="utf-8"?>
<!-- Generator: Adobe Illustrator 25.0.0, SVG Export Plug-In . SVG Version: 6.00 Build 0)  -->
<svg version="1.1" id="Calque_1" xmlns="http://www.w3.org/2000/svg" xmlns:xlink="http://www.w3.org/1999/xlink" x="0px" y="0px"
	 viewBox="0 0 394.9 108.6" style="enable-background:new 0 0 394.9 108.6;" xml:space="preserve">
<style type="text/css">
	.st0{fill:#0693A0;}
	.st1{fill:#05BDCF;}
	.st2{fill:#076A68;}
	.st3{fill:#0B909C;}
	.st4{fill:#066A68;}
	.st5{fill:#0A6B69;}
	.st6{fill:#0D6C69;}
	.st7{fill:#11C0D1;}
	.st8{fill:#156F6D;}
	.st9{fill:#2A7C7A;}
	.st10{fill:#05BDCE;}
	.st11{fill:#015E63;}
	.st12{fill:#066967;}
	.st13{fill:#086B69;}
	.st14{fill:#046866;}
	.st15{fill:#025E63;}
	.st16{fill:#076967;}
	.st17{fill:#7DD9E6;}
	.st18{fill:#7BD7E2;}
	.st19{fill:#0BA8BB;}
	.st20{fill:#09AABD;}
	.st21{fill:#0CB0C3;}
	.st22{fill:#0FA6B7;}
	.st23{fill:#0BADBB;}
	.st24{fill:#7DD8E4;}
	.st25{fill:#7AD5E0;}
	.st26{fill:#109EAD;}
	.st27{fill:#11A6B9;}
	.st28{fill:#11A2B1;}
	.st29{fill:#15ABBD;}
	.st30{fill:#16A5B4;}
</style>
<path class="st0" d="M383,60.4c0.2,3.4-0.9,6.8-3.1,9.5c-7.4,10.1-16.8,18.4-27.7,24.5c-6.3,3.5-12.3,3-16.4-1.2
	c-4.3-4.5-5.1-11.8-1.9-17.6c1.4-2.5,3.5-4.6,6-6c7.6-4.1,14.1-9.8,19.2-16.7c5.4-7.1,14.5-8,20.2-2.2
	C381.9,53.3,383.2,56.8,383,60.4z"/>
<path class="st1" d="M204,74.6c-3.4-0.1-6.9,0.6-9.7-2.1c-1.5-1.8-1.7-4.1-1.9-6.3c-0.3-3.4,0.2-6.8-0.4-10.2
	c-0.3-1.9,1.3-4,1.3-6.2c0.2-2.9,0.1-5.7-0.3-8.6c-0.5-3,0-3.5,3-4.1c2.3-0.4,4.5,0.1,6.7,0.1c4.2,0,8.4-0.4,12.7-0.3
	c0.5,0,1.1,0,1.6,0c0.9,0,1.9,0.1,2.3,1.1s-0.8,1.3-1.2,1.9c-5.8,1.4-11.8,1.1-17.7,1.4c-2.1,0.1-3.1,0.5-2.9,2.9
	c0.2,2.2,0.1,4.5-0.3,6.7c-0.3,1.7,0.4,2.5,2.2,2.4c4.7-0.3,9.3-0.5,14-0.8c1.1,0,2.7-0.8,3,0.8c0.2,1.4-1.2,2-2.5,2.4
	c-4.6,1.1-9.4,1.8-14.1,1.9c-2.3,0.1-3.6,0.7-3.4,3.3c0.1,1.3-0.3,2.6-0.1,4c0.6,4.2,1.5,5.2,5.6,5.1c5.5,0,10.9-0.9,16.2-2.4
	c0.7-0.2,1.3-0.8,1.8,0.1c0.4,0.6,0.3,1.4-0.1,2c-0.8,1.2-2,2.1-3.4,2.4c-1.7,0.5-3.5,0.9-5.2,1.3C208.9,74.7,206.4,74.1,204,74.6z"
	/>
<path class="st1" d="M146.7,68.2c-5,3.7-10.4,6.2-16.7,6.4c-10.5,0.3-17.7-8.8-15.3-19c1.1-4.2,3.1-8,6-11.2
	c1.6-1.8,3.6-3.3,5.9-4.4c5-2.8,10.4-3,15.9-1.8c1.5,0.4,2.8,1.3,3.6,2.7c0.7,0.9,0.5,2.2-0.3,3c-0.9,0.9-1.7,0.7-2.6,0.1
	c-6.1-3.5-12-2.9-17.4,1.6c-4,3.3-6.5,8.1-6.8,13.3c-0.6,8.4,5.7,12.2,13.1,11.1c4.5-0.5,8.8-2.3,12.5-5c1.4-0.5,2.5-2.1,4.3-1.2
	C150.2,66.2,147.8,66.9,146.7,68.2z"/>
<path class="st2" d="M245.4,60.1c-2.7,2-5.5,1.3-8.2,0.3c-1.9-0.7-2.2-0.1-2.1,1.6s0,3.2,0,4.9c-0.1,2.8,0,5.6,4.4,5.8
	c-2.2,1-10.4,1.2-13.2,0.6c0-0.2,0-0.5,0-0.5c3.4-0.8,4-3,3.9-6.2c-0.2-8.8-0.1-17.5-0.1-26.3c0-2.5-0.4-4.2-3.5-3.5
	c-0.2-1.3,0.6-1.7,1.5-2c1.3-0.5,2.7-1,4-1.5c2.7-1,2.8-1,2.9,1.8c0,0.7-0.4,1.6,0.5,1.9s1.1-0.8,1.5-1.2c4.2-5.1,10.5-4.5,13.6,1.5
	s3.6,12.2-0.4,18.1c-0.9-2,0.4-3.6,0.8-5.4c1.2-4.8,0-9.1-2.5-13.1c-1.9-3.1-5.9-3.5-9.7-1.4c0.4-0.1,0.9-0.3,1.3-0.3
	c0.6-0.1,1.3,0.1,1.8,0.5c0.4,0.3,0.9,0.6,0.5,1.3c-6.8,2.5-6.8,2.5-6.8,10c0,2-0.1,4,0,5.9c0.1,2.9,1.9,5.1,4.3,5.5
	c2.6,0.4,4.8-0.8,5.9-3.7c2.1-5.9,1.9-11.5-2.6-16.4c-0.4-0.4-1-0.8-0.7-1.6c1.8-1,2.9,0.2,3.9,1.4c1.2,1.4,1.9,3.1,2.2,4.9
	c0.8,4.3,1.3,8.7-0.7,12.9c-0.7,1.8-2.1,3.2-3.9,3.9C244.5,59.5,245,59.7,245.4,60.1z"/>
<path class="st1" d="M166.2,61.7c-0.4-6,0.6-11.8,1-17.5c0.1-2.2-0.6-2.8-2.7-2.7c-2.8,0.2-5.6,0-8.4,0c-2,0-3.9-0.4-3.9-2.7
	s2.2-2,3.8-1.9c7.8,0.2,15.6,1.3,23.5,0.9c1.4-0.1,2.9-0.2,4.3-0.2c0.8-0.1,1.5,0,1.8,0.8c0.2,0.7,0,1.5-0.6,2
	c-1,1.1-2.3,1.1-3.5,1.2c-2.6,0.2-5.2,0.3-7.8,0.2c-2.1-0.1-3,0.8-3.1,2.8c-0.1,8.7-0.7,17.5,0.5,26.2c0.2,1.8,0.4,3.6-1.8,3.7
	c-1.8,0.1-3-1.6-3.1-3.4C166.1,67.8,166.2,64.6,166.2,61.7z"/>
<path class="st3" d="M21.8,48.3c-5,0.1-9.2-3.8-9.4-8.9c0-1,0.1-2,0.4-2.9c2.6-8.3,7.3-15.7,13.6-21.7c3.8-3.6,9.7-3.5,13.4,0.1
	c3.5,3.4,3.6,9,0.2,12.6c-0.1,0.1-0.2,0.2-0.3,0.3c-4,4.1-7,8.9-8.9,14.3C29.4,45.9,25.8,48.4,21.8,48.3z"/>
<path class="st2" d="M323.5,60.1h-11.3c4.2-1.3,3.2-4.7,3.2-7.6c0-4.2,0-8.3,0-12.4c0-1.8,0-3.8-2.7-3.5c-0.5,0-0.6-0.3-0.6-0.7
	c0-0.6,0.5-0.9,1-1.1c1.5-0.5,3-1.2,4.4-1.8c2-1,2.7-0.6,2.7,1.7c-0.1,6.6,0,13.2-0.1,19.7c0,2.6,0.5,4.7,3.5,5.2L323.5,60.1z"/>
<path class="st4" d="M242.5,36.8c-1.5-1.9-3.2-1-5.2,0.2c1.3-2.8,3.4-4,5.5-3.8c2.6,0.2,5.3,1,6.8,3.7c3.1,5.7,3.6,11.4,0.8,17.4
	c-0.1,0.3-0.1,0.7-0.2,1c-0.8,2.3-2.6,4-4.9,4.8l-3.9,0.2c5.8-2.1,7.1-6.1,7.1-11c0-3.6-0.3-7-2.2-10.2c-0.7-1.5-2.2-2.4-3.9-2.3
	L242.5,36.8z"/>
<path class="st5" d="M325.6,53c0.5-2,1.2-3.8,3.1-4.9c2.7-1.8,5.3-3.6,8.6-4.2c0.3,0,0.5,0.2,0.7,0.3c0.3,0.8-0.3,1.2-0.9,1.6
	c-1.9,0.2-3.6,1.3-4.6,2.8c-0.4,0.5-0.7,1-1,1.6c-0.8,1.7-0.6,3.6,0.5,5.1c1.3,1.7,3,1.1,4.7,0.8c0.9-0.1,1.7-0.8,2.7-0.6
	c1.5,0.4,2.3,1.2,1.5,2.9c-1.5-1.4-2.4-0.6-3.7,0.5c-1.9,1.7-4.3,2.5-6.8,2.2C326.5,59.4,324.5,56.1,325.6,53z"/>
<path class="st6" d="M337.4,34.6c-1.1-0.1-2.2-0.1-3.2-0.1c-1.5-0.1-2.7,1.1-2.8,2.6c0,0,0,0.1,0,0.1c0,0.3,0,0.5,0,0.8
	c-0.2,1.5-0.4,3.1-2,3.9c-0.8,0.4-1.7,0-2.1-0.8c-0.9-1.5-0.9-3.4,0.1-4.9c2.5-4.3,11.6-5.5,15.2-1.9c1.2,1.1,1.9,2.7,1.9,4.3
	c0,4.7,0,9.4,0.1,14.1s0.4,4.9,4.5,2.8c-0.5,2.1-2,3.9-4,4.7c-0.2-0.2-0.3-0.5-0.3-0.7c-2.8-5.9-1.1-12.2-1.5-18.3
	c-0.1-1.6-0.1-3.3-1-4.7s-1.9-2.4-3.8-1.6C338.2,35,337.7,34.9,337.4,34.6z"/>
<path class="st7" d="M203,29.2c2.2-2.1,4.4-4.2,6.6-6.3c0.8-0.7,1.5-1.6,2.7-1.4c0.8,0.1,1.7,0,2.2,0.8s0,1.7-0.6,2.4
	c-1.4,1.8-3.5,2.8-5,4.4c-1,0.9-2.1,1.6-3.3,2.3C203.7,32.2,202.7,31.2,203,29.2z"/>
<path class="st8" d="M271.1,18.9c0.8,0.2,2-0.5,2.5,0.4s-0.6,1.7-1.2,2.5c-1.7,2.1-3.4,4.2-5.1,6.2c-0.4,0.4-0.7,1.2-1.5,0.7
	c-0.5-0.3-0.3-1-0.1-1.5c0.7-2.3,1.5-4.6,2.1-6.9C268.3,18.4,269.9,19,271.1,18.9z"/>
<path class="st9" d="M319,18.3c1.8,1.1,2,2.7,1.1,4.4c-0.7,1.4-2.1,1.3-3.3,1c-2.3-0.7-1.6-2.6-1.5-4.2
	C316.3,18.4,317.3,17.2,319,18.3z"/>
<path class="st5" d="M341.8,60.6c0-0.2,0-0.4-0.1-0.5c1-1,2.1-1.4,3.4-0.6v0.6C344,60.8,343,61.3,341.8,60.6z"/>
<path class="st10" d="M63.2,56.2c-1.8-0.3-3.6-1-5.5-1.3c-0.6-0.1-1.4,0.1-1.5-0.7c-0.2-1,1.1-0.7,1.5-1.2c2.4-0.8,4.5-2.3,6-4.3
	c2.3-3.6,0.9-7.7-3.2-9.7c-5-1.8-10.4-2.4-15.7-1.8c-2.3,0.1-4.7,0.6-6.8,1.6c-0.8,0.3-1.2,1.2-1,2c0.1,0.5,0.7,0.9,1.2,0.8
	c0,0,0.1,0,0.1,0c3.2-0.7,3,1.4,3.1,3.5c0.2,8.7-0.7,17.3-1,25.9c-0.1,2.4,1,3.4,3,3.5c2.4,0.2,4.9,0.3,7.3,0.1
	c4.8-0.5,9.6-1.2,13.7-4.2C69.1,66.9,71.2,59,63.2,56.2z M45.8,47.1c0-0.4,0-0.7,0-1.1c0-6.3,0-6.3,6.3-5.5c1.8,0.1,3.6,0.7,5.1,1.6
	c2.6,1.7,3,4.7,0.8,6.9c-3,2.9-6.8,3.9-10.8,4.6c-1.2,0.2-1.6-0.5-1.6-1.6C45.8,50.3,45.8,48.7,45.8,47.1z M59.1,69
	c-3.9,1.4-8,2.1-12.2,1.8c-1.8-0.1-2.5-0.7-2.3-2.7c0.4-2.6,0.6-5.2,0.6-7.8c-0.1-2.8,1.1-3.7,3.7-3.3c0.6,0,1.3,0,1.9,0
	c2.6,0,5.2,0.5,7.7,1.4c2.3,0.8,4.7,1.7,5.1,4.5C63.8,65.2,61.7,68,59.1,69z"/>
<path class="st11" d="M369.1,49.7c7.6,0.1,12.3,6.4,11.3,12.5c-0.8,5-4.2,8.3-7.2,11.7c-6.3,7.2-13.9,13.3-22.2,18
	c-5.9,3.3-12.5,1.7-15-3.6c-2.9-5.7-0.7-12.7,4.8-15.9c8.2-4.6,15.3-10.9,20.9-18.4C363.4,51.6,366.1,50.1,369.1,49.7z"/>
<path class="st1" d="M107.3,70.7l-3-8c-0.8-1.1-0.8-2.6,0-3.8c1-2.3-1.6-1.8-2.2-2.7c-0.6-1.8-1.5-3.6-2.1-5.4
	c-0.3-1-0.7-1.9-1.2-2.8c-1.8-3.7-2.5-7.9-5.3-11.1c-1.9-1.5-3,0-4.3,1c-3.3,5.9-6.9,11.7-9.8,17.8c-1.5,2.6-2.5,5.4-3.8,8.1
	c-1.2,2.2-2.3,4.5-3.2,6.8c-0.6,1.4-1.1,2.9,0.6,3.7s2.7-0.6,3.3-2c1.5-3.2,2.8-6.4,4.2-9.6c0.7-1.4,1.8-1.7,3.3-1.7
	c4.1,0,8.2,0.5,12.3-0.5c2.1-0.5,3.2,0.4,3.8,2.3c0.4,3.5,2.3,6.5,3.2,9.8c0.4,1.6,1.5,2.6,3.2,1.8S107.8,72.2,107.3,70.7z
	 M95.7,57.2c-3.5,0-7,0-10.6,0c-1.6,0-1.5-0.7-0.9-1.9c2-4,4-8.1,6-12.1c1.4-1,1.7,0.1,2.1,1.1c1.5,3.7,2.9,7.4,4.4,11.1
	C97.2,56.6,97,57.2,95.7,57.2z"/>
<path class="st12" d="M278.2,50.8c-0.9-0.3-0.9,0.5-1.2,1.1c-2.1,4-4.6,5-8.9,3.8c-4.8-1.4-6.8-7-6.9-11.1c0-1.2,0.9-1.2,1.7-1.2h7
	l0,0c2.4,0,4.7,0,7,0c0.9,0,1.9,0,1.8-1.4c-0.4-3.5-1.7-6.7-5-8.4c-3.4-1.9-7.5-1.8-10.8,0.3c-6.1,3.5-7.7,16.1-3.6,21.9
	c2.5,3.7,6.3,6,9.8,5.4c4.5-0.8,8.5-4.5,9.2-8.7C278.5,51.9,279.1,51.2,278.2,50.8z M262.1,37.9c1.2-2.3,3.7-3.6,6.2-3.2
	c2.2,0.4,3.9,2.2,4.3,4.4c0.5,2.2-0.3,3-2.5,2.8c-1-0.1-2-0.1-3,0h-2.7C261.1,41.7,260.7,40.9,262.1,37.9z"/>
<path class="st13" d="M305.3,52.8c-0.1-9.7-0.1-19.5-0.1-29.2c0-6.3,0-6.3-5.7-3.6c-0.2,0.2-0.1,0.5,0.1,0.7c0,0,0,0,0.1,0
	c0.2,0.1,0.5,0.2,0.8,0.2c3.2-0.3,3.2-0.4,3.2,3c0,9.4,0,18.7,0,28.1c0,2.2,0.1,4.3,1.7,6c-2.8,0.6-3.9-0.1-3.6-2.5
	c0.4-3.7,0.1-7.4,0.2-11s-0.2-7.2-2.6-10.2c-0.1-0.3-0.2-0.5-0.4-0.7c-4.1-2.1-7.9-1.7-11.2,1.4c-5.5,5.3-7.4,15.8-2.3,22.4
	c2,2.5,6.3,4.8,9.8,3.4c1.7-0.7,3.1-1.8,4.6-2.6c1,1,0,3.3,1.5,2.9c2.7-0.7,5.6-1.5,8.2-4.2C305.7,57.5,305.3,55.3,305.3,52.8z
	 M300.4,46.9c0,1.9,0,3.4,0,4.8c0,3.7-0.9,5.2-3.6,6c-2.2,0.6-5.5-0.8-6.9-3.2c-3-5.6-3.6-11.4-0.2-17.2c2.5-4.2,7.2-4.1,9.6,0.2
	C301.1,40.7,300.1,44.1,300.4,46.9L300.4,46.9z"/>
<path class="st14" d="M298.9,34.1c0.8,0.4,1.6,0.8,1.7-0.6c0.2-3.5,0.2-7,0-10.5c-0.1-1-2.4-1-1.1-2.5c0.1,0,0.2,0,0.3,0
	c4.6-1.2,4.6-1.2,4.6,3.6c0,9.5,0,19.1,0,28.6c0,2,0,4.2,2.4,5.4c-0.5,0.1-1.1,0.3-1.6,0.5c-1,0.5-2.6,1.7-3,0.8
	c-0.5-1.3-1.6-2.2-1.4-4.3c0.7-5.4,0.7-10.9,0-16.4c-0.2-1.6-1.3-2.5-2.1-3.6C298.2,34.6,297.9,34.2,298.9,34.1z"/>
<path class="st15" d="M40.4,21.4c0.1,2-0.7,3.9-2.2,5.3c-4.1,4.1-7.2,9.2-9.2,14.7c-1.4,4-5.8,6.1-9.3,4.8
	c-4.5-1.7-6.3-5.7-4.7-10.2c2.6-7.6,7.1-14.4,13-19.8c2.5-2.3,4.9-2.8,7.6-1.6C38.7,16,40.4,18.4,40.4,21.4z"/>
<path class="st16" d="M345.2,57.5c-1.5-0.8-1.3-2-1.3-3.2c0-5,0-9.9,0-14.9c0-3.5-2.1-5.8-5.3-5.8c-1.6,0,0,0.7-0.1,1
	c0.5,0.7,0.9,1.3,1.3,2.1c1.2,2.8,0.4,6-1.7,6.8l-0.6,0.9h0.6h1.4c1,3.3,0.4,6.7,0.3,10c0,0.5-0.3,0.9-0.7,1.1c0,0.1,0,0.2,0,0.3
	c1.3,0.5,2,1.3,1.5,2.8c-0.1,0.7,0.4,1.3,1,1.5l3.3-0.5C346,59,346.5,58.2,345.2,57.5z"/>
<path class="st17" d="M352,80.7c0,3.2-2.5,5.8-5.6,6c-2.8,0-5-2.3-5-5c0-0.1,0-0.2,0-0.3c0.1-3.3,2.6-6.1,5.6-6.2S352,77.4,352,80.7
	z"/>
<path class="st18" d="M362.4,73.8c0,2.3-1.6,4.1-3.5,4c-2.1-0.1-3-1.4-3.1-3.3s1.7-4,3.6-3.9c1.7,0,3,1.4,2.9,3.1
	C362.4,73.7,362.4,73.8,362.4,73.8z"/>
<path class="st19" d="M369.9,60.7c0,1.1-0.2,2-1.4,2c-1.4-0.1-1.6-1.3-1.7-2.3c-0.1-0.8,0.4-1.6,1.3-1.7c0,0,0.1,0,0.1,0
	C369.5,58.6,369.8,59.7,369.9,60.7z"/>
<path class="st20" d="M371.1,66.1c-0.1,0.9,0.1,2-1.2,2s-1.5-1.1-1.5-2.1s0.2-2.1,1.5-2.1C371.4,63.9,371,65.2,371.1,66.1z"/>
<path class="st21" d="M370.5,54.8c-0.4,1-0.9,2.2-2.2,2.3c-0.9,0.1-1.2-0.7-1.1-1.5c0.1-1.2,1-2.2,2.1-2.4
	C370.2,53.1,370.5,54,370.5,54.8z"/>
<path class="st22" d="M368.8,69.4c0.7,0.1,1.2,0.8,1.1,1.6c0,0,0,0,0,0c0,1-0.8,1.9-1.8,1.9c-0.6,0.1-1.2-0.3-1.3-1
	c0-0.1,0-0.3,0-0.4C367,70.5,367.8,69.7,368.8,69.4z"/>
<path class="st23" d="M371.6,55.6c-0.1-0.8,0.4-1.5,1.2-1.6c0.1,0,0.2,0,0.3,0c1,0,1.4,0.7,1.6,1.5c0.2,0.7-0.1,1.4-0.8,1.6
	c-0.1,0.1-0.3,0.1-0.5,0.1C372.4,57.3,371.9,56.5,371.6,55.6z"/>
<path class="st24" d="M32.5,26.2c-2,0-3.6-1.6-3.8-3.5c0-2.1,1.6-3.8,3.7-3.8c0,0,0,0,0,0c2-0.1,3.7,1.5,3.7,3.5c0,0,0,0,0,0
	C36.2,24.4,34.6,26.1,32.5,26.2C32.5,26.2,32.5,26.2,32.5,26.2z"/>
<path class="st25" d="M28,29.2c0.1,1.1-0.8,2.1-1.9,2.2c-0.1,0-0.2,0-0.3,0c-1.1,0.1-2.1-0.7-2.2-1.7c0-0.1,0-0.3,0-0.4
	c-0.1-1.2,0.7-2.2,1.9-2.3c0.2,0,0.3,0,0.5,0C27.3,27,27.9,27.9,28,29.2z"/>
<path class="st26" d="M20.5,35.1c0.7,0.2,1.2,0.8,1.2,1.5c0,0.6-0.4,1-1,1c-0.1,0-0.2,0-0.2,0c-0.8-0.1-1.1-0.9-1.1-1.6
	S19.9,35.2,20.5,35.1z"/>
<path class="st27" d="M22.5,38c0.7,0.1,1.2,0.7,1.4,1.4c0.1,0.4-0.2,0.9-0.6,1c-0.1,0-0.2,0-0.3,0c-0.7,0-1.3-0.6-1.5-1.3
	C21.5,38.5,21.9,38.1,22.5,38z"/>
<path class="st28" d="M20.8,44.3c-0.6,0-1-0.4-1-1c0-0.1,0-0.2,0-0.3c0-0.4,0.3-0.8,0.8-0.8c0,0,0.1,0,0.1,0c0.6,0,1.2,0.5,1.2,1.1
	c0,0,0,0.1,0,0.1C21.9,44.1,21.4,44.3,20.8,44.3z"/>
<path class="st29" d="M23,42.6c0.1-0.6,0.2-1.3,1-1.3s0.7,0.7,0.7,1.2s-0.2,1.1-0.9,1.2S23,43.2,23,42.6z"/>
<path class="st30" d="M21.3,32.9c-0.1,0.5-0.3,1-0.9,1c-0.5,0.1-0.9-0.3-1-0.7c0-0.1,0-0.1,0-0.2c0-0.5,0.4-1,0.9-1.1
	C20.9,31.8,21.3,32.2,21.3,32.9z"/>
</svg>
