<svg xmlns="http://www.w3.org/2000/svg" viewBox="0 0 517.53 626"><g id="Calque_2" data-name="Calque 2"><g id="Calque_1-2" data-name="Calque 1"><path d="M417.82,0c8.62,2.93,17.89,4.69,25.75,9,25.2,13.84,37.69,35.92,38,64.55.33,33.15.08,66.31.08,99.47v23.7c-3.87-3.22-6.87-5.64-9.79-8.16-11.59-10-23.08-20.13-34.77-30a9.51,9.51,0,0,1-3.74-8.1c.13-25.16,0-50.32.11-75.48,0-9-2.5-16.68-10-22.24-5.27-3.89-11.29-4.61-17.54-4.61H75.94c-6.42,0-12.66.65-17.95,4.83-5.63,4.45-9.22,10-9.46,17.38-.07,2.16-.26,4.32-.26,6.48q0,236.19-.06,472.39c0,9.44,1.7,17.81,9.79,23.86,5.11,3.82,10.89,4.77,17,4.78q30,.06,60,0,135.21,0,270.43,0c10.55,0,19.84-2.59,24.73-12.58,2.24-4.56,3.07-10.2,3.14-15.36.3-25,.07-50,.24-75,0-2.2,1-5.08,2.53-6.47,13.94-12.37,28.11-24.48,42.22-36.65.74-.64,1.59-1.13,3.07-2.17.12,2.15.29,3.71.29,5.27,0,39,.25,78-.07,117-.25,30.75-14.22,53.53-41.94,67.13-6.76,3.32-14.49,4.67-21.78,6.92h-355a26.44,26.44,0,0,0-3.17-1.1c-10.19-2.2-19.8-5.71-28.34-11.83C9.73,597.59,0,576.33,0,550.05q.09-237,0-474c0-2.33,0-4.67.13-7,1.94-25.89,13.49-46.24,36.21-59C44.75,5.33,54.63,3.27,63.82,0Z"/><path d="M313,385.13H172.26c-18.43,0-27.55-9.16-27.56-27.63q0-44.74,0-89.48c0-17.88,9.22-27.12,27-27.13q67.23,0,134.46,0h6.49c.11-2,.3-3.79.3-5.54,0-17.49-.15-35,.11-52.48a58.5,58.5,0,0,1,2.13-16.24c3.5-11.29,16.36-14.82,25.27-7.15,20.3,17.48,40.42,35.17,60.67,52.7q39.44,34.14,78.95,68.17C492.46,291,504.68,301.77,517.53,313c-7.13,6.22-13.94,12.21-20.79,18.16Q470.37,354.07,444,377q-33.39,28.92-66.82,57.8c-11.32,9.8-22.83,19.39-33.81,29.56-5.48,5.07-11,7.06-18.1,4.54-7.42-2.65-10.06-8.85-11.28-15.76a79.23,79.23,0,0,1-.9-13.43c-.1-16.17,0-32.33,0-48.49Z"/></g></g></svg>