<svg xmlns="http://www.w3.org/2000/svg" viewBox="0 0 499.99 512"><defs><style>.cls-1{fill:#fff;}</style></defs><g id="Calque_2" data-name="Calque 2"><g id="Calque_1-2" data-name="Calque 1"><path d="M347.77,512c-9.25-2.56-16-7.79-18.41-17.5a24.69,24.69,0,0,1-.62-5.88q0-125,0-249.93c0-25.32,0-50.63,0-76.59-8.48-1-16.8-2.09-25.13-3.08-14-1.68-28-3.25-42.05-5a18.32,18.32,0,0,1-15.38-11.88c-2.91-7.25-1.07-14,3.86-19.92q21.54-25.9,43.07-51.82c7.15-8.65,18.5-10.37,27-3.92,8.7,6.62,10,18.14,2.82,27.33C316.47,102,309.63,110,303,118c-.5.6-.89,1.29-1.71,2.51,10.37,1.19,20.16,3.07,30,3.31,31.78.78,63.58,1,95.38,1.35,16,.19,29.58,5.26,39.44,18.48,5.31,7.12,8.54,15.11,8.64,23.92q.74,70.66,1,141.34c.06,11.23-8.25,19.5-19,19.42s-18.88-8.34-18.93-19.5q-.21-47.73-.44-95.45-.12-20-.36-40c0-2.91.62-6.76-3.82-6.7s-4.18,3.88-4.17,7.08l.36,137.73q.22,86.54.44,173.09c0,9.59-2,18.28-10.87,23.65-2.77,1.69-6.08,2.49-9.14,3.7h-6c-15.21-4.89-20-11.58-20-27.84V307.39h-9.53c-.1,1.79-.25,3.26-.25,4.73q0,81.31.07,162.63c0,3.49-.07,7-.08,10.47,0,15.63-4.39,21.72-19.21,26.78Z"/><path d="M73.74,512c-5.1-2.48-9.36-5.74-10-11.89C62.94,491.76,69,485.25,77.94,485c7.66-.19,15.32-.12,23-.19.12,0,.25-.2.6-.5V312.44H83.94c-19.46,0-38.92-.12-58.37.07-5.9.06-10.09-1.72-13.09-7.07-3.32-5.92-7.22-11.52-11.1-17.09-1.78-2.55-1.89-4.49,0-7.13,4.18-6,8.08-12.17,11.92-18.37,2.63-4.25,6.24-5.94,11.23-5.91,23.82.13,47.65.06,71.47.06h5.78V232.67c0-18.32,0-36.65,0-55,0-7.36,3.32-12.64,8.92-14.68a13.34,13.34,0,0,1,18,12.06c.14,3.16,0,6.33,0,9.49s0,6.29,0,9.82c15.5,0,30.67,0,45.84,0,10.76,0,21.52-.15,32.28-.14,4.4,0,7.93,1.54,10.38,5.59,3.79,6.23,7.85,12.3,12,18.31,1.85,2.69,2,5,.17,7.75-4.25,6.34-8.34,12.79-12.52,19.18-2.54,3.9-6.3,5-10.76,5-23.82-.07-47.65,0-71.47,0H129V485H150.6c9,0,14.55,3.62,16.09,10.38,1.66,7.33-1.42,12.49-9.94,16.62Z"/><path class="cls-1" d="M354.77,512c14.82-5.06,19.19-11.15,19.21-26.78,0-3.49.08-7,.08-10.47q0-81.31-.07-162.63c0-1.47.15-2.94.25-4.73h9.53V484.16c0,16.26,4.8,22.95,20,27.84Z"/><path d="M481.78,0c8.3,2.47,15.06,6.5,17.41,15.7,2.4,9.38-.59,17.44-8.58,22.8-4.6,3.07-8.93,6.55-13.46,9.72a5.46,5.46,0,0,1-2.86.54c-4.28.05-8.55,0-13,0-.45-7.68,2.51-12.64,8.66-16a82.85,82.85,0,0,0,9.58-6.14c2.83-2.11,4.12-5.16,1.64-8.19-2.64-3.22-6.23-2.81-9.39-.65-1.72,1.18-3,3.07-4.56,4.79l-12.36-8.81C457.74,6.52,463.21,2.68,470.5,1c1.11-.26,2.19-.64,3.28-1Z"/><path d="M379.38,29.67c21.92.17,38.66,17,39.28,38.75.63,21.92-17.73,39.65-39.94,39.62a38.87,38.87,0,0,1-38.67-39.26C340.09,46.32,357.87,29.68,379.38,29.67Z"/><path d="M461.83,75.61V59h15.62V75.61Z"/></g></g></svg>