<svg xmlns="http://www.w3.org/2000/svg" viewBox="0 0 225 225"><defs><style>.cls-1{fill:#fff;}.cls-2{fill:#05bdce;}</style></defs><g id="Calque_2" data-name="Calque 2"><g id="Calque_1-2" data-name="Calque 1"><path class="cls-1" d="M0,225V0H225V225ZM112.61,7C54.72,7,7.06,54.39,7,112c-.06,58.27,47.24,106,105.13,106C170.36,218,218,170.7,218,112.73,218,54.59,170.61,7,112.61,7Z"/><path d="M112.61,7C170.61,7,218,54.59,218,112.73c0,58-47.64,105.3-105.87,105.27C54.24,218,6.94,170.28,7,112,7.06,54.39,54.72,7,112.61,7Zm.11,14C62.5,20.9,21.26,61.71,21,111.78c-.27,50.56,40.52,92,90.77,92.2A91.59,91.59,0,0,0,204,112.72C204.2,62.4,163.12,21.11,112.72,21Z"/><path class="cls-2" d="M112.72,21c50.4.11,91.48,41.4,91.27,91.72A91.59,91.59,0,0,1,111.78,204c-50.25-.21-91-41.64-90.77-92.2C21.26,61.71,62.5,20.9,112.72,21Zm12.33,91.51c-13.08,13-25.63,25.37-38.14,37.8-4.26,4.24-4.74,8.07-1.57,11.28s7,2.82,11.27-1.41q20.7-20.64,41.34-41.33c5.1-5.11,5.05-7.64-.18-12.89Q123.66,91.82,109.5,77.69c-4.71-4.71-9.19-9.69-14.27-14a9.1,9.1,0,0,0-7.53-1.51c-1.92.67-3.93,3.77-4.12,5.95-.18,2,1.59,4.65,3.22,6.3C99.21,87,111.8,99.37,125.05,112.51Z"/><path d="M125.05,112.51C111.8,99.37,99.21,87,86.8,74.46c-1.63-1.65-3.4-4.28-3.22-6.3.19-2.18,2.2-5.28,4.12-5.95a9.1,9.1,0,0,1,7.53,1.51c5.08,4.28,9.56,9.26,14.27,14Q123.65,91.82,137.77,106c5.23,5.25,5.28,7.78.18,12.89q-20.64,20.68-41.34,41.33c-4.24,4.23-8.07,4.66-11.27,1.41s-2.69-7,1.57-11.28C99.42,137.88,112,125.48,125.05,112.51Z"/></g></g></svg>