<svg xmlns="http://www.w3.org/2000/svg" viewBox="0 0 68.54 66.74"><g id="Calque_2" data-name="Calque 2"><g id="Calque_1-2" data-name="Calque 1"><path d="M68.54,33.46C68.45,51.84,53,66.8,34.25,66.74,15.31,66.68-.15,51.51,0,33.15S15.64-.1,34.44,0,68.63,15.15,68.54,33.46Zm-6.35-.18c0-15-12.63-27.14-28-27.09S6.27,18.55,6.33,33.43s12.72,27.16,28,27.1S62.23,48.25,62.19,33.28Z"/><path d="M31.41,36.21H20.76a19.25,19.25,0,0,1-2.15,0c-1.7-.19-2.91-1-2.87-2.87s1.27-2.71,3-2.75c3.26-.08,6.53,0,9.8,0H31.4V20.81c0-.87,0-1.75,0-2.62a2.71,2.71,0,0,1,2.85-2.89,2.69,2.69,0,0,1,2.89,2.85c.11,3.1,0,6.21,0,9.32,0,.93,0,1.87,0,3.06h10c.79,0,1.59,0,2.39,0,1.83,0,3.21.85,3.25,2.76s-1.42,2.89-3.34,2.91c-3.11,0-6.21,0-9.32,0h-3c0,2.5,0,4.85,0,7.2,0,1.6,0,3.19,0,4.78-.05,2-1,3.29-3,3.23s-2.78-1.35-2.77-3.23Z"/></g></g></svg>