<svg xmlns="http://www.w3.org/2000/svg" viewBox="0 0 438.74 512"><g id="Calque_2" data-name="Calque 2"><g id="Calque_1-2" data-name="Calque 1"><path d="M221.43,0V73.86C231.89,74.91,242,75.72,252,77c19.15,2.41,37.47,8,55.13,15.64A219.86,219.86,0,0,1,432.15,240.2a211.88,211.88,0,0,1,5.2,76.57c-4.78,41.75-20,79.29-46.3,112.23q-42.14,52.72-106.4,73.16A198.29,198.29,0,0,1,238,511.08a10.18,10.18,0,0,0-2.59.92h-31c-6.78-1-13.59-1.86-20.36-3a214.35,214.35,0,0,1-98.74-43.49C43.7,432.77,17.2,390.41,5.85,338.85,2.6,324.09,1.91,308.76,0,293.27H62.14C64.42,350.61,88.68,396.05,137.52,427c32.43,20.55,68.36,27.52,106.24,21.51,87.14-13.82,141.29-92.39,132.4-171.82-9.71-86.75-82.49-140.31-154.58-140.5v74.56L69.72,105.4c6.46-4.57,12.56-9,18.72-13.24Q153.23,47.25,218,2.36A19.86,19.86,0,0,0,220.43,0Z"/></g></g></svg>