<svg xmlns="http://www.w3.org/2000/svg" viewBox="0 0 206.85 206.91"><g id="Calque_2" data-name="Calque 2"><g id="Calque_1-2" data-name="Calque 1"><path d="M103.36,206.91H14.91C4.2,206.9,0,202.77,0,192.2Q0,103.49,0,14.8C0,4.19,4.18.06,14.88.06q82,0,163.91-.06c3.21,0,5.62.74,7.89,3.14,5.6,5.92,11.63,11.45,17.15,17.45a11.17,11.17,0,0,1,2.9,6.83q.22,82.7.11,165.4c0,9.65-4.41,14.07-14,14.08Q148.1,206.93,103.36,206.91Zm75.05-5V103.33h-150v98.55ZM37.71,4.54c0,17.74,0,34.88,0,52,0,7,2.3,9.31,9.25,9.31q56.46,0,112.93,0c6.92,0,9.2-2.31,9.22-9.34q0-24,0-48c0-1.28-.24-2.55-.36-3.84H155c0,14.26-.18,28.08.11,41.89.09,4.53-1.41,5.72-5.72,5.53-7.14-.33-14.33-.31-21.48,0-4.08.17-5.53-1-5.44-5.28.24-12.32.09-24.65.07-37,0-1.76-.19-3.52-.3-5.34ZM7.28,160.85V180.1c3.45-1.61,7.62-2.26,8.3-4.16a18.09,18.09,0,0,0,0-11.36C15,162.77,10.65,162.25,7.28,160.85Z"/><path d="M43.38,168.57H163.5c1.72,4.79-1.5,4.2-4.14,4.2H79.44c-11,0-22-.06-33,0C43.37,172.84,42,172,43.38,168.57Z"/><path d="M43.26,121.24H163.14c1.07,4,1.07,4.08-3.37,4.08q-38.19,0-76.38,0-18.23,0-36.44,0C44.48,125.35,41.9,125.56,43.26,121.24Z"/><path d="M163.66,137.23c1.32,4.77-2,3.83-4.25,3.83q-34.74,0-69.47,0-21.5,0-43,0c-2.41,0-5,.33-3.73-3.86Z"/><path d="M43.27,156.7c-1.13-3.2.12-4.07,3-4,5.48.12,11,0,16.47,0h96.83c2.44,0,5.48-.61,4.07,4Z"/></g></g></svg>