<svg xmlns="http://www.w3.org/2000/svg" viewBox="0 0 224 224.03"><g id="Calque_2" data-name="Calque 2"><g id="Calque_1-2" data-name="Calque 1"><path d="M132.9,152.86c-41.76,27.78-91.35,14.93-116.22-18.47A84.13,84.13,0,0,1,134.42,16.65c33.4,24.93,46.23,74.48,18.47,116.22,1.2,1.25,2.42,2.58,3.7,3.85,20.61,20.62,41.28,41.18,61.77,61.93a19.79,19.79,0,0,1,5.22,8.74,13.06,13.06,0,0,1-6.93,15.14c-5.4,2.79-12.19,1.68-17-3.09q-31.52-31.4-62.93-62.88C135.48,155.28,134.15,154.06,132.9,152.86ZM84.72,140c30.8-.33,55.78-25.78,55.38-56.41-.4-30.92-25.59-55.88-56.23-55.72C53,28,27.6,53.69,27.9,84.44A56.18,56.18,0,0,0,84.72,140Z"/></g></g></svg>