<?xml version="1.0" encoding="utf-8"?>
<!-- Generator: Adobe Illustrator 25.0.0, SVG Export Plug-In . SVG Version: 6.00 Build 0)  -->
<svg version="1.1" id="Calque_1" xmlns="http://www.w3.org/2000/svg" xmlns:xlink="http://www.w3.org/1999/xlink" x="0px" y="0px"
	 viewBox="0 0 438.6 438.6" style="enable-background:new 0 0 438.6 438.6;" xml:space="preserve">
<path d="M438.5,189.5c0-7.6-3-10.9-10.5-12c-15.6-2.3-31.2-4.8-46.9-7c-2.4-0.3-3.3-1.3-4-3.5c-2.3-7.3-5.3-14.4-8.9-21.1
	c-1.5-2.8-1.4-4.8,0.7-7.4c8.9-11.2,17.6-22.7,26.3-34c1.8-2.4,3.5-4.9,3.3-8.3c0.4-3.5-1.7-6.1-3.8-8.8
	c-13.6-16.8-29.4-31.3-45.2-45.9c-4.6-4.2-9.2-4-14.4-0.1c-12.3,9.3-24.8,18.5-37,28c-2.3,1.8-4,1.9-6.6,0.6c-5.5-2.8-11.2-5.1-17-7
	c-4.5-1.3-5.6-3.8-6.2-8c-2-14.7-4.3-29.3-6.6-43.9c-1.4-9-4-11.1-13.3-11.1c-19.2,0-38.3,0-57.5,0c-10.1,0-12.3,1.8-14.5,11.9
	c-3.2,15-5.1,30.2-6.8,45.4c-0.4,3-1.5,4.3-4.2,5.1c-6.3,2-12.5,4.5-18.4,7.7c-2.9,1.5-4.8,1.5-7.5-0.7c-10.9-8.8-22-17.2-33.1-25.8
	c-8.7-6.7-11.1-7-19.7-0.1C70.2,56.8,55.1,72,41.8,88.8c-4.7,5.9-4.5,9.3,0.3,15.1c9.5,11.6,18.8,23.3,27.6,35.5
	c1.3,1.8,2.4,3.2,1,5.8c-3.7,6.7-6.7,13.7-9,21c-0.4,1.8-1.9,3.1-3.8,3.2c-15.5,2.3-30.9,4.7-46.4,6.9C2.8,177.5,0,180.5,0,189.4
	c0,19.5,0,39,0,58.5c0,9.2,2.7,12.1,11.7,13.4c15.2,2.2,30.3,4.5,45.4,6.7c2.5,0.3,3.6,1.2,4.4,3.7c2.1,7.4,5,14.5,8.8,21.1
	c1.8,3.1,1.1,5.2-0.9,7.9c-8.7,11-17.2,22-25.7,33.2c-5.2,6.9-5.1,11.1,0.3,17.9c13.2,16.4,28.9,30.5,44.3,44.7
	c5.6,5.1,9.9,5.2,16,0.5c12.2-9.2,24.4-18.5,36.5-27.8c1.5-1.5,3.9-1.8,5.8-0.7c5.8,2.9,11.8,5.3,17.9,7.4c4,1.3,5.2,3.5,5.8,7.3
	c2.1,15,4.5,29.9,6.8,44.9c1.3,8.4,4,10.6,12.6,10.6c19.3,0,38.7,0,58,0c10.2,0,12.5-1.9,14.5-11.8c3.2-15.2,5.1-30.5,6.9-45.9
	c0.3-2.6,1.2-3.8,3.5-4.5c6.7-2,13.1-4.7,19.3-8c2.8-1.5,4.6-1,7,0.9c10.5,8.5,21.2,16.7,31.8,25c9.8,7.7,12.5,8,22.2,0.1
	c15.9-12.8,29.9-27.5,42.9-43.2c6-7.3,5.8-10.5-0.2-17.9c-9.2-11.2-18.2-22.6-26.7-34.2c-1.5-2.1-2-3.7-0.7-6.2
	c3.3-6.3,6.1-12.9,8.4-19.7c0.8-2.2,1.9-3.5,4.5-3.8c15.6-2.2,31.2-4.7,46.9-7c7.3-1.1,10.6-4.4,10.6-11.9
	C438.6,230.1,438.6,209.8,438.5,189.5z M219.1,292.3c-40,0.2-72.7-32-72.9-72.1c0-0.3,0-0.5,0-0.8c0-41.2,32.2-73.3,73.5-73.2
	c40.5,0,72.7,32.4,72.6,73.1C292.4,260.2,260,292.4,219.1,292.3z"/>
</svg>
